Coordinates
version=1
nRows=24
nColumns=38
inDegrees=no

Units are S.I. units (second, meters, Newtons, ...)
If the header above contains a line with 'inDegrees', this indicates whether rotational values are in degrees (yes) or radians (no).

endheader
time	pelvis_tilt	pelvis_list	pelvis_rotation	pelvis_tx	pelvis_ty	pelvis_tz	hip_flexion_r	hip_adduction_r	hip_rotation_r	knee_angle_r	ankle_angle_r	subtalar_angle_r	mtp_angle_r	hip_flexion_l	hip_adduction_l	hip_rotation_l	knee_angle_l	ankle_angle_l	subtalar_angle_l	mtp_angle_l	lumbar_extension	lumbar_bending	lumbar_rotation	arm_flex_r	arm_add_r	arm_rot_r	elbow_flex_r	pro_sup_r	wrist_flex_r	wrist_dev_r	arm_flex_l	arm_add_l	arm_rot_l	elbow_flex_l	pro_sup_l	wrist_flex_l	wrist_dev_l
0	0.520599	1.44916	-1.91911	0.696531	1.85939	0.934619	-0.134687	-0.12486	-0.318051	0.161076	0.109065	0	0	-0.20395	0.0362875	-0.0563098	0	0.00185488	0	0	-0.173603	-0.0350643	-0.102142	-0.0624883	-0.272421	0.359225	0.564863	1.5708	0	0	-0.0424225	-0.307996	0.43775	0.607014	1.45327	0	0
0.01	0.523386	1.45042	-1.92129	0.696717	1.85928	0.934482	-0.133424	-0.124724	-0.318253	0.161341	0.109214	0	0	-0.202575	0.0362445	-0.0562393	0	0.00247058	0	0	-0.172545	-0.0345855	-0.101912	-0.0629855	-0.272413	0.360621	0.566463	1.5708	0	0	-0.0421275	-0.307607	0.437787	0.606453	1.45326	0	0
0.02	0.452909	1.46648	-1.84557	0.697449	1.85937	0.932405	-0.120361	-0.110528	-0.319867	0.161475	0.109173	0	0	-0.18332	0.0254946	-0.0585753	0	0.015205	0	0	-0.158795	-0.0196302	-0.105567	-0.0653786	-0.275316	0.35586	0.572316	1.5708	0	0	-0.0434641	-0.306309	0.438862	0.608068	1.45351	0	0
0.03	0.429097	1.46524	-1.82387	0.696958	1.85885	0.932541	-0.123709	-0.106759	-0.317831	0.158286	0.107636	0	0	-0.184957	0.0238259	-0.0744844	0	0.0178435	0	0	-0.161073	-0.0188678	-0.1034	-0.0649097	-0.272847	0.350451	0.572026	1.5708	0	0	-0.0443125	-0.308541	0.438356	0.610276	1.45415	0	0
0.04	0.510623	1.4486	-1.91002	0.696284	1.85845	0.934763	-0.137923	-0.122709	-0.316989	0.15817	0.10701	0	0	-0.205358	0.0359676	-0.0693801	0	0.00336538	0	0	-0.175615	-0.0350123	-0.0995879	-0.0627509	-0.26928	0.353206	0.564596	1.5708	0	0	-0.0436089	-0.310257	0.43673	0.609142	1.45499	0	0
0.05	0.525815	1.45034	-1.92186	0.697291	1.85881	0.934526	-0.135239	-0.124898	-0.319184	0.159601	0.107648	0	0	-0.203131	0.0366697	-0.0543982	0	0.0024686	0	0	-0.174652	-0.0345724	-0.101504	-0.0629404	-0.270995	0.352012	0.565512	1.5708	0	0	-0.0420213	-0.308575	0.436843	0.607383	1.45545	0	0
0.06	0.527368	1.45173	-1.92315	0.697432	1.85865	0.93441	-0.134452	-0.124414	-0.318917	0.158593	0.106831	0	0	-0.201778	0.0363651	-0.0551333	0	0.00342955	0	0	-0.173445	-0.0341819	-0.10112	-0.0629431	-0.270472	0.348276	0.568028	1.5708	0	0	-0.041802	-0.308359	0.43679	0.605591	1.45568	0	0
0.07	0.427964	1.46643	-1.8213	0.697501	1.8581	0.932442	-0.125226	-0.105946	-0.318374	0.154633	0.1053	0	0	-0.18441	0.0236037	-0.0734548	0	0.0197574	0	0	-0.161421	-0.0181316	-0.102544	-0.0649816	-0.272518	0.349671	0.572522	1.5708	0	0	-0.0439642	-0.308591	0.437165	0.608908	1.45544	0	0
0.08	0.525039	1.4507	-1.9192	0.697812	1.8584	0.934502	-0.138285	-0.124187	-0.321179	0.154921	0.105718	0	0	-0.203153	0.0364648	-0.0522886	0	0.00316806	0	0	-0.17567	-0.0339407	-0.101732	-0.0626154	-0.270537	0.348844	0.570617	1.5708	0	0	-0.0414909	-0.308395	0.435358	0.605384	1.4536	0	0
0.09	0.524112	1.4511	-1.91761	0.69796	1.85822	0.934512	-0.139657	-0.123587	-0.322134	0.152345	0.104863	0	0	-0.202916	0.0361477	-0.0518099	0	0.0034317	0	0	-0.1756	-0.0337881	-0.101851	-0.0616516	-0.270336	0.355064	0.56697	1.5708	0	0	-0.0412944	-0.308463	0.434748	0.604647	1.45095	0	0
0.1	0.521122	1.45166	-1.91451	0.698051	1.85802	0.934526	-0.141202	-0.122608	-0.322383	0.149051	0.103544	0	0	-0.20268	0.0356233	-0.0520574	0	0.00391906	0	0	-0.175382	-0.0334654	-0.101013	-0.0612842	-0.269928	0.357279	0.565102	1.5708	0	0	-0.0406503	-0.308337	0.434285	0.604284	1.44765	0	0
0.11	0.517427	1.45217	-1.91088	0.698164	1.85786	0.934547	-0.142946	-0.12162	-0.322552	0.145331	0.101857	0	0	-0.202463	0.0351243	-0.0526188	0	0.00450649	0	0	-0.175263	-0.0330426	-0.0997727	-0.0611937	-0.269544	0.35642	0.56494	1.5708	0	0	-0.0397717	-0.308177	0.435198	0.604339	1.44442	0	0
0.12	0.499785	1.45139	-1.89623	0.697404	1.8572	0.934778	-0.147169	-0.118397	-0.321174	0.139939	0.0994096	0	0	-0.204171	0.0338033	-0.0667715	0	0.00585076	0	0	-0.176105	-0.032971	-0.0968969	-0.0605831	-0.26741	0.35622	0.563975	1.5708	0	0	-0.0407606	-0.309979	0.435992	0.605675	1.43976	0	0
0.13	0.514829	1.45316	-1.90812	0.698446	1.85762	0.934569	-0.146015	-0.120397	-0.324158	0.138377	0.0992004	0	0	-0.201859	0.0345065	-0.0515872	0	0.00497839	0	0	-0.175253	-0.0324924	-0.0986644	-0.0597776	-0.269442	0.357123	0.567954	1.56102	0	0	-0.0389016	-0.308449	0.437944	0.605536	1.43301	0	0
0.14	0.512959	1.45406	-1.9062	0.698592	1.85748	0.934549	-0.147311	-0.11954	-0.325202	0.134577	0.0976716	0	0	-0.200978	0.0341623	-0.0515645	0	0.00554429	0	0	-0.174838	-0.0320251	-0.0982417	-0.0586959	-0.269839	0.359032	0.570437	1.54505	0	0	-0.038635	-0.308863	0.439992	0.606636	1.42464	0	0
0.15	0.512012	1.45486	-1.90535	0.698757	1.85736	0.934541	-0.148529	-0.118914	-0.326164	0.130983	0.0962288	0	0	-0.200175	0.0339963	-0.051596	0	0.00611589	0	0	-0.174483	-0.0317478	-0.0975125	-0.0575007	-0.271102	0.370303	0.569273	1.53225	0	0	-0.0380059	-0.309533	0.443481	0.607898	1.41474	0	0
0.16	0.513147	1.45548	-1.90679	0.698912	1.85725	0.934528	-0.149829	-0.118608	-0.326461	0.127254	0.0947968	0	0	-0.199457	0.0341687	-0.0520939	0	0.00674734	0	0	-0.174413	-0.0317381	-0.0967626	-0.0560062	-0.271736	0.376593	0.570303	1.50837	0	0	-0.0374874	-0.310588	0.448061	0.610051	1.40288	0	0
0.17	0.499987	1.45488	-1.89689	0.698162	1.85665	0.934714	-0.153728	-0.115883	-0.324788	0.121539	0.0925785	0	0	-0.200504	0.0335607	-0.0671369	0	0.00833276	0	0	-0.175283	-0.0320859	-0.0945255	-0.0536168	-0.270075	0.379207	0.572374	1.47669	0	0	-0.0391414	-0.313964	0.452574	0.614288	1.3889	0	0
0.18	0.504756	1.45683	-1.90146	0.698434	1.85655	0.934569	-0.153407	-0.115659	-0.326205	0.118384	0.0917539	0	0	-0.198123	0.0337655	-0.0663629	0	0.00910028	0	0	-0.173514	-0.0319027	-0.0946547	-0.0514937	-0.272308	0.395262	0.573641	1.4484	0	0	-0.039283	-0.315068	0.457523	0.616628	1.37213	0	0
0.19	0.443608	1.47355	-1.83275	0.700175	1.85717	0.932364	-0.139945	-0.104005	-0.33056	0.116823	0.0916714	0	0	-0.177435	0.0245971	-0.0530642	0	0.0209222	0	0	-0.159299	-0.0170046	-0.100039	-0.0514848	-0.28139	0.421955	0.578745	1.41452	0	0	-0.0385837	-0.31299	0.465054	0.619579	1.35125	0	0
0.2	0.525406	1.4582	-1.92046	0.699767	1.85694	0.93443	-0.154063	-0.118594	-0.327601	0.113086	0.0897221	0	0	-0.195403	0.0362662	-0.0520806	0	0.00931657	0	0	-0.173358	-0.0324365	-0.0945427	-0.0465485	-0.281699	0.450218	0.577636	1.32556	0	0	-0.0361591	-0.31746	0.477557	0.623217	1.31064	0	0
0.21	0.510681	1.45785	-1.91032	0.698969	1.85647	0.934635	-0.156425	-0.11617	-0.324208	0.109117	0.0879553	0	0	-0.195925	0.0358246	-0.0685663	0	0.0114578	0	0	-0.174348	-0.0329371	-0.0891648	-0.0453097	-0.280151	0.456429	0.580697	1.23523	0	0	-0.0351872	-0.32117	0.488533	0.627186	1.27355	0	0
0.22	0.544626	1.46173	-1.94199	0.700103	1.85695	0.934261	-0.150253	-0.120309	-0.32798	0.111689	0.090402	0	0	-0.19005	0.0381859	-0.0537601	0	0.0112516	0	0	-0.171274	-0.0341707	-0.0849473	-0.0511013	-0.269127	0.404316	0.579592	1.07428	0	0	-0.0282527	-0.319898	0.501988	0.626855	1.21232	0	0
0.23	0.628083	1.47849	-2.02665	0.70024	1.85671	0.932833	-0.123113	-0.124213	-0.341444	0.12771	0.1034	0	0	-0.16796	0.0405569	-0.0722662	0	0.0199755	0	0	-0.152319	-0.0371339	-0.0848073	-0.03709	-0.231632	0.0129892	0.581848	0.753002	0	0	-0.0323934	-0.310733	0.468674	0.620132	1.09859	0	0
